name analog
datacolumns 19
datarows 42
range 0.349 0.3695
endheader
time	ground_force_vx	ground_force_vy	ground_force_vz	ground_force_px	ground_force_py	ground_force_pz	l_ground_force_vx	l_ground_force_vy	l_ground_force_vz	l_ground_force_px	l_ground_force_py	l_ground_force_pz	ground_torque_x	ground_torque_y	ground_torque_z	l_ground_torque_x	l_ground_torque_y	l_ground_torque_z
0.349	-0.0	-0.0	-0.0	4.728157043457031	31.64051055908203	-416.7523193359375	-2.864975690841675	-30.1330509185791	-382.1571044921875	-0.0	-0.0	-0.0	-0.0	-0.0	-0.0	94424.0234375	22625.814453125	-5277.76904296875
0.3495	-0.0	-0.0	-0.0	4.326428413391113	31.88644790649414	-416.3998718261719	-2.8387451171875	-30.252765655517575	-382.690673828125	-0.0	-0.0	-0.0	-0.0	-0.0	-0.0	94501.0703125	22877.193359375	-5120.6376953125
0.35	-0.0	-0.0	-0.0	4.728157043457031	31.529970169067383	-416.399169921875	-2.672489881515503	-30.673358917236328	-381.1525573730469	-0.0	-0.0	-0.0	-0.0	-0.0	-0.0	94604.84375	22882.6328125	-5254.85595703125
0.3505	-0.0	-0.0	-0.0	4.772943019866943	31.68567657470703	-415.5169067382813	-2.8177309036254883	-30.668546676635746	-381.870849609375	-0.0	-0.0	-0.0	-0.0	-0.0	-0.0	94775.375	22847.265625	-5075.3173828125
0.351	-0.0	-0.0	-0.0	5.018928527832031	31.486820220947266	-416.3938598632813	-2.462811231613159	-30.622299194335938	-382.8533325195313	-0.0	-0.0	-0.0	-0.0	-0.0	-0.0	94798.1484375	23058.287109375	-5168.1650390625
0.3515	-0.0	-0.0	-0.0	5.106647491455078	32.06444549560547	-415.5144958496094	-2.619041204452514	-30.96294212341309	-382.670166015625	-0.0	-0.0	-0.0	-0.0	-0.0	-0.0	94706.9140625	23060.615234375	-5230.5986328125
0.352	-0.0	-0.0	-0.0	4.973216533660889	31.509212493896484	-415.2545166015625	-2.8559961318969727	-31.068134307861328	-383.55084228515625	-0.0	-0.0	-0.0	-0.0	-0.0	-0.0	95244.34375	22917.52734375	-5253.37060546875
0.3525	-0.0	-0.0	-0.0	4.86266565322876	32.04168701171875	-415.5976257324219	-2.682592391967773	-31.064437866210938	-383.2704772949219	-0.0	-0.0	-0.0	-0.0	-0.0	-0.0	94961.0078125	23339.015625	-5224.7724609375
0.353	-0.0	-0.0	-0.0	4.99578857421875	32.1744499206543	-415.60931396484375	-3.282299041748047	-30.623010635375977	-383.8016052246094	-0.0	-0.0	-0.0	-0.0	-0.0	-0.0	94865.7578125	23210.62890625	-5329.37744140625
0.3535	-0.0	-0.0	-0.0	4.923848628997803	31.93142318725586	-415.50531005859375	-3.3923895359039307	-30.73594665527344	-384.16351318359375	-0.0	-0.0	-0.0	-0.0	-0.0	-0.0	94858.921875	23309.248046875	-5410.14208984375
0.354	-0.0	-0.0	-0.0	4.771693229675293	31.73042297363281	-415.0852966308594	-3.618571758270264	-30.866992950439453	-384.5003967285156	-0.0	-0.0	-0.0	-0.0	-0.0	-0.0	95048.4921875	23194.6015625	-5506.400390625
0.3545	-0.0	-0.0	-0.0	4.702884197235107	32.06169891357422	-413.6643676757813	-3.615626811981201	-30.934011459350582	-382.7444458007813	-0.0	-0.0	-0.0	-0.0	-0.0	-0.0	95086.8671875	23573.384765625	-5565.68408203125
0.355	-0.0	-0.0	-0.0	4.820051670074463	31.9721794128418	-412.6051330566406	-3.948801279067993	-30.97941398620605	-384.5101318359375	-0.0	-0.0	-0.0	-0.0	-0.0	-0.0	95004.671875	23731.46484375	-5646.84423828125
0.3555	-0.0	-0.0	-0.0	4.569873809814453	31.710304260253903	-413.1408081054688	-3.682568073272705	-30.80272102355957	-383.1129455566406	-0.0	-0.0	-0.0	-0.0	-0.0	-0.0	95045.40625	23731.505859375	-5608.99365234375
0.356	-0.0	-0.0	-0.0	4.526661396026611	31.53219413757324	-412.51416015625	-4.413837909698486	-30.580909729003903	-383.9813537597656	-0.0	-0.0	-0.0	-0.0	-0.0	-0.0	94867.78125	23762.25	-5684.63232421875
0.3565	-0.0	-0.0	-0.0	4.153383731842041	32.1958122253418	-411.8078002929688	-4.01216459274292	-31.110916137695312	-384.6856689453125	-0.0	-0.0	-0.0	-0.0	-0.0	-0.0	94863.8203125	23828.53125	-5661.48779296875
0.357	-0.0	-0.0	-0.0	4.569313049316406	31.641292572021484	-411.7159118652344	-4.06026554107666	-30.93432235717773	-384.6736755371094	-0.0	-0.0	-0.0	-0.0	-0.0	-0.0	94953.5625	23898.322265625	-5669.27734375
0.3575	-0.0	-0.0	-0.0	3.882575511932373	31.86603546142578	-410.7330627441406	-4.346828460693359	-31.33122444152832	-384.2437438964844	-0.0	-0.0	-0.0	-0.0	-0.0	-0.0	94627.828125	23955.671875	-5683.79736328125
0.358	-0.0	-0.0	-0.0	3.8593907356262207	31.668750762939453	-409.7811279296875	-4.47944974899292	-31.355085372924805	-383.8904724121094	-0.0	-0.0	-0.0	-0.0	-0.0	-0.0	94794.2578125	23991.2890625	-5758.9296875
0.3585	-0.0	-0.0	-0.0	3.1545310020446777	31.81955337524414	-409.7813720703125	-4.656989574432373	-31.26587677001953	-385.0301513671875	-0.0	-0.0	-0.0	-0.0	-0.0	-0.0	94674.8984375	24011.060546875	-5766.07763671875
0.359	-0.0	-0.0	-0.0	3.8078861236572266	31.345760345458984	-408.3689575195313	-4.745853424072266	-31.729135513305664	-383.8928833007813	-0.0	-0.0	-0.0	-0.0	-0.0	-0.0	94880.765625	24310.876953125	-5810.6962890625
0.3595	-0.0	-0.0	-0.0	3.098842144012451	31.81955337524414	-408.927978515625	-4.635101795196533	-31.839750289916992	-384.3287963867188	-0.0	-0.0	-0.0	-0.0	-0.0	-0.0	94705.546875	24171.923828125	-5832.93896484375
0.36	-0.0	-0.0	-0.0	2.831151247024536	31.9035587310791	-407.0297546386719	-4.590850353240967	-31.288068771362305	-384.3292846679688	-0.0	-0.0	-0.0	-0.0	-0.0	-0.0	94906.0234375	24261.541015625	-5892.08544921875
0.3605	-0.0	-0.0	-0.0	2.681752920150757	31.88504219055176	-408.8165588378906	-5.1671061515808105	-31.905912399291992	-384.5020446777344	-0.0	-0.0	-0.0	-0.0	-0.0	-0.0	94725.515625	24200.455078125	-5907.4736328125
0.361	-0.0	-0.0	-0.0	2.3906116485595703	31.53410530090332	-406.791748046875	-4.812709331512451	-31.61975860595703	-384.0691528320313	-0.0	-0.0	-0.0	-0.0	-0.0	-0.0	94808.9296875	24147.419921875	-5847.80419921875
0.3615	-0.0	-0.0	-0.0	2.128974914550781	31.92074966430664	-407.1455383300781	-4.923048973083496	-32.1053352355957	-385.1173706054688	-0.0	-0.0	-0.0	-0.0	-0.0	-0.0	94852.0546875	24388.951171875	-5944.19677734375
0.362	-0.0	-0.0	-0.0	2.224111557006836	31.897157669067383	-406.8876647949219	-4.967803955078125	-31.905384063720703	-385.5561218261719	-0.0	-0.0	-0.0	-0.0	-0.0	-0.0	95171.1015625	24168.671875	-5892.62548828125
0.3625	-0.0	-0.0	-0.0	2.0104331970214844	32.056678771972656	-406.4154968261719	-4.967803955078125	-32.14909362792969	-384.5045471191406	-0.0	-0.0	-0.0	-0.0	-0.0	-0.0	94888.0390625	24313.474609375	-5966.642578125
0.363	-0.0	-0.0	-0.0	1.766933798789978	31.593379974365234	-407.0112915039063	-5.033923625946045	-32.23741912841797	-385.89495849609375	-0.0	-0.0	-0.0	-0.0	-0.0	-0.0	95125.6484375	24165.28125	-5966.1337890625
0.3635	-0.0	-0.0	-0.0	1.4273681640625	31.63108253479004	-405.8310852050781	-5.388716220855713	-31.949907302856445	-387.12005615234375	-0.0	-0.0	-0.0	-0.0	-0.0	-0.0	95273.703125	24160.88671875	-5959.27783203125
0.364	-0.0	-0.0	-0.0	1.3381576538085938	32.463130950927734	-405.2988586425781	-5.167929649353027	-32.391456604003906	-386.8599853515625	-0.0	-0.0	-0.0	-0.0	-0.0	-0.0	95396.0390625	24405.841796875	-6011.630859375
0.3645	-0.0	-0.0	-0.0	1.1262747049331665	32.04609298706055	-406.5101318359375	-4.927065372467041	-32.36870193481445	-388.3462524414063	-0.0	-0.0	-0.0	-0.0	-0.0	-0.0	95412.5078125	24419.689453125	-6048.7607421875
0.365	-0.0	-0.0	-0.0	1.192840337753296	32.2168083190918	-404.9663696289063	-5.631827831268311	-32.54524230957031	-387.3888854980469	-0.0	-0.0	-0.0	-0.0	-0.0	-0.0	95555.4140625	24523.435546875	-6070.49658203125
0.3655	-0.0	-0.0	-0.0	1.2246772050857544	32.5732307434082	-405.5466613769531	-5.368409633636475	-32.724586486816406	-387.04010009765625	-0.0	-0.0	-0.0	-0.0	-0.0	-0.0	95531.0234375	24263.80078125	-6094.19921875
0.366	-0.0	-0.0	-0.0	0.6975142955780029	32.378662109375	-404.5514221191406	-5.25377368927002	-32.65616607666016	-387.2091674804688	-0.0	-0.0	-0.0	-0.0	-0.0	-0.0	95429.3828125	24483.826171875	-6181.10791015625
0.3665	-0.0	-0.0	-0.0	1.2161275148391724	32.572959899902344	-404.037841796875	-5.4080023765563965	-32.8327522277832	-386.6146240234375	-0.0	-0.0	-0.0	-0.0	-0.0	-0.0	95521.875	24317.654296875	-6079.04296875
0.367	-0.0	-0.0	-0.0	0.7784115672111511	32.94507598876953	-405.0350036621094	-4.840230941772461	-32.966983795166016	-386.8599853515625	-0.0	-0.0	-0.0	-0.0	-0.0	-0.0	95595.5390625	24392.041015625	-6107.1640625
0.3675	-0.0	-0.0	-0.0	0.8921051025390625	32.978248596191406	-405.1945495605469	-5.149100303649902	-32.87871170043945	-389.1218872070313	-0.0	-0.0	-0.0	-0.0	-0.0	-0.0	95609.5390625	24377.970703125	-6099.58544921875
0.368	-0.0	-0.0	-0.0	0.5661600828170776	32.655426025390625	-405.6091003417969	-4.790382385253906	-32.94804763793945	-388.75628662109375	-0.0	-0.0	-0.0	-0.0	-0.0	-0.0	95790.9375	24278.73046875	-6152.23193359375
0.3685	-0.0	-0.0	-0.0	0.9907625317573548	33.67609024047852	-404.5260620117188	-4.94891357421875	-32.79051971435547	-387.9990539550781	-0.0	-0.0	-0.0	-0.0	-0.0	-0.0	95882.1796875	24241.97265625	-6066.244140625
0.369	-0.0	-0.0	-0.0	0.7781707048416138	33.171539306640625	-404.99951171875	-4.879093170166016	-33.29727935791016	-388.1829528808594	-0.0	-0.0	-0.0	-0.0	-0.0	-0.0	95865.0703125	24205.998046875	-6069.6494140625
0.3695	-0.0	-0.0	-0.0	0.9714272618293762	33.46352767944336	-405.90185546875	-4.813765525817871	-33.75736618041992	-389.06591796875	-0.0	-0.0	-0.0	-0.0	-0.0	-0.0	96037.140625	24436.330078125	-6083.6943359375
